<svg class="svg-icon" style="width: 1em; height: 1em;vertical-align: middle;fill: currentColor;overflow: hidden;" viewBox="0 0 1024 1024" version="1.1" xmlns="http://www.w3.org/2000/svg"><path d="M512 1024C230.4 1024 0 793.6 0 512S230.4 0 512 0s512 230.4 512 512S793.6 1024 512 1024zM512 85.333333C277.333333 85.333333 85.333333 277.333333 85.333333 512s192 426.666667 426.666667 426.666667 426.666667-192 426.666667-426.666667S746.666667 85.333333 512 85.333333z"  /><path d="M512 682.666667c-25.6 0-42.666667-17.066667-42.666667-42.666667l0-29.866667c0-64 34.133333-119.466667 85.333333-149.333333 34.133333-17.066667 51.2-55.466667 42.666667-89.6-4.266667-34.133333-34.133333-64-68.266667-68.266667-25.6-4.266667-51.2 0-72.533333 17.066667C439.466667 332.8 426.666667 358.4 426.666667 384c0 25.6-17.066667 42.666667-42.666667 42.666667S341.333333 409.6 341.333333 384c0-51.2 21.333333-98.133333 59.733333-132.266667 38.4-34.133333 89.6-46.933333 140.8-38.4 68.266667 12.8 123.733333 68.266667 136.533333 136.533333 12.8 72.533333-21.333333 145.066667-85.333333 179.2-25.6 12.8-38.4 42.666667-38.4 76.8L554.666667 640C554.666667 665.6 537.6 682.666667 512 682.666667z"  /><path d="M512 768m-42.666667 0a1 1 0 1 0 85.333333 0 1 1 0 1 0-85.333333 0Z"  /><path d="M512 832c-34.133333 0-64-29.866667-64-64s29.866667-64 64-64 64 29.866667 64 64S546.133333 832 512 832zM512 746.666667c-12.8 0-21.333333 8.533333-21.333333 21.333333s8.533333 21.333333 21.333333 21.333333 21.333333-8.533333 21.333333-21.333333S524.8 746.666667 512 746.666667z"  /></svg>