<!-- <svg xmlns="http://www.w3.org/2000/svg" viewBox="0 0 320 512"> -->
    <!--!Font Awesome Free 6.5.2 by @fontawesome - https://fontawesome.com License - https://fontawesome.com/license/free Copyright 2024 Fonticons, Inc.-->
    <!-- <path fill="#f8f8f8" d="M80 160c0-35.3 28.7-64 64-64h32c35.3 0 64 28.7 64 64v3.6c0 21.8-11.1 42.1-29.4 53.8l-42.2 27.1c-25.2 16.2-40.4 44.1-40.4 74V320c0 17.7 14.3 32 32 32s32-14.3 32-32v-1.4c0-8.2 4.2-15.8 11-20.2l42.2-27.1c36.6-23.6 58.8-64.1 58.8-107.7V160c0-70.7-57.3-128-128-128H144C73.3 32 16 89.3 16 160c0 17.7 14.3 32 32 32s32-14.3 32-32zm80 320a40 40 0 1 0 0-80 40 40 0 1 0 0 80z"/> -->
<!-- </svg> -->


<svg [style.height]="strHeight" [style.width]="strWidth" xmlns="http://www.w3.org/2000/svg">
    <!--!Font Awesome Free 6.5.2 by @fontawesome - https://fontawesome.com License - https://fontawesome.com/license/free Copyright 2024 Fonticons, Inc.-->
    <ellipse ry="176" rx="176" 
    id="svg_1" cy="196" cx="196" 
    stroke-width="32" [style.stroke]="fillColor" fill="none"/>
    <path [style.fill]="fillColor" d="
      M160 144
      c0-17.65 14.35-32 32-32
      h16
      c17.65 0 32 14.35 32 32
      v1.8
      c0 10.9-5.55 21.05-14.7 26.9
      l-21.1 13.55
      c-12.6 8.1-20.2 22.05-20.2 37
      V224
      c0 8.85 7.15 16 16 16
      s16-7.15 16-16
      v-0.7
      c0-4.1 2.1-7.9 5.5-10.1
      l21.1-13.55
      c18.3-11.8 29.4-32.05 29.4-53.85
      V144
      c0-35.35-28.65-64-64-64
      H192
      C192 80 128 80 128 144
      c0 8.85 7.15 16 16 16
      s16-7.15 16-16z
      m40 160
      a20 20 0 1 0 0-40 20 20 0 1 0 0 40z"/>
</svg>