<svg xmlns="http://www.w3.org/2000/svg" viewBox="0 0 388 388">
    <ellipse ry="176" rx="176" 
    id="svg_1" cy="196" cx="196" 
    stroke-width="32" [style.stroke]="fillColor" fill="none"/>
    <path [style.fill]="fillColor" d="
      M160 144
      c0-17.65 14.35-32 32-32
      h16
      c17.65 0 32 14.35 32 32
      v1.8
      c0 10.9-5.55 21.05-14.7 26.9
      l-21.1 13.55
      c-12.6 8.1-20.2 22.05-20.2 37
      V224
      c0 8.85 7.15 16 16 16
      s16-7.15 16-16
      v-0.7
      c0-4.1 2.1-7.9 5.5-10.1
      l21.1-13.55
      c18.3-11.8 29.4-32.05 29.4-53.85
      V144
      c0-35.35-28.65-64-64-64
      H192
      C192 80 128 80 128 144
      c0 8.85 7.15 16 16 16
      s16-7.15 16-16z
      m40 160
      a20 20 0 1 0 0-40 20 20 0 1 0 0 40z"/>
</svg>